<svg xmlns="http://www.w3.org/2000/svg" viewBox="0 0 900 260" width="900" height="260">
<ellipse cx="150" cy="254" rx="86" ry="5" fill="#171715" opacity=".12"/><rect x="80" y="8" width="10" height="144" rx="3" fill="#171715"/><rect x="210" y="8" width="10" height="144" rx="3" fill="#171715"/><rect x="88" y="20" width="124" height="56" fill="#A8342A"/><path d="M88 25 H212 M88 71 H212" stroke="#171715" stroke-width="1.5" stroke-dasharray="4 3" opacity=".22"/><rect x="64" y="102" width="172" height="10" rx="5" fill="#171715"/><path d="M84 134 H216 V152 Q150 159 84 152 Z" fill="#A8342A"/><path d="M92 152 L208 244 M208 152 L92 244" stroke="#171715" stroke-width="9"/><circle cx="150" cy="198" r="3.5" fill="#F3EFE6"/><rect x="76" y="242" width="148" height="8" rx="2" fill="#171715"/>
<ellipse cx="450" cy="254" rx="86" ry="5" fill="#171715" opacity=".12"/><rect x="380" y="8" width="10" height="144" rx="3" fill="#171715"/><rect x="510" y="8" width="10" height="144" rx="3" fill="#171715"/><rect x="388" y="20" width="124" height="56" fill="#625D55"/><path d="M388 25 H512 M388 71 H512" stroke="#171715" stroke-width="1.5" stroke-dasharray="4 3" opacity=".22"/><rect x="364" y="102" width="172" height="10" rx="5" fill="#171715"/><path d="M384 134 H516 V152 Q450 159 384 152 Z" fill="#625D55"/><path d="M392 152 L508 244 M508 152 L392 244" stroke="#171715" stroke-width="9"/><circle cx="450" cy="198" r="3.5" fill="#F3EFE6"/><rect x="376" y="242" width="148" height="8" rx="2" fill="#171715"/>
<ellipse cx="750" cy="254" rx="86" ry="5" fill="#171715" opacity=".12"/><rect x="680" y="8" width="10" height="144" rx="3" fill="#171715"/><rect x="810" y="8" width="10" height="144" rx="3" fill="#171715"/><rect x="688" y="20" width="124" height="56" fill="#78A9B5"/><path d="M688 25 H812 M688 71 H812" stroke="#171715" stroke-width="1.5" stroke-dasharray="4 3" opacity=".22"/><rect x="664" y="102" width="172" height="10" rx="5" fill="#171715"/><path d="M684 134 H816 V152 Q750 159 684 152 Z" fill="#78A9B5"/><path d="M692 152 L808 244 M808 152 L692 244" stroke="#171715" stroke-width="9"/><circle cx="750" cy="198" r="3.5" fill="#F3EFE6"/><rect x="676" y="242" width="148" height="8" rx="2" fill="#171715"/>
</svg>
