<svg xmlns="http://www.w3.org/2000/svg" viewBox="0 0 300 400" width="300" height="400">
<rect width="300" height="400" fill="#E5DED1"/>
<circle cx="104" cy="32" r="7" fill="#171715"/><rect x="134" y="25" width="32" height="14" rx="7" fill="#171715"/><circle cx="196" cy="32" r="7" fill="#171715"/>
<path d="M40 80 Q95 80 150 318 Q200 170 250 170" fill="none" stroke="#625D55" stroke-width="1.5" stroke-dasharray="4 5"/>
<rect x="20" y="330" width="260" height="4" fill="#171715"/>
<ellipse cx="40" cy="80" rx="16" ry="16" fill="#171715" opacity="0.2"/>
<ellipse cx="62" cy="89.5" rx="16" ry="16" fill="#171715" opacity="0.2"/>
<ellipse cx="84" cy="118.1" rx="16" ry="16" fill="#171715" opacity="0.3"/>
<ellipse cx="106" cy="165.7" rx="16" ry="16" fill="#171715" opacity="0.3"/>
<ellipse cx="128" cy="232.3" rx="16" ry="16" fill="#171715" opacity="0.4"/>
<ellipse cx="141" cy="281" rx="13" ry="19" fill="#171715" opacity="0.5"/>
<ellipse cx="150" cy="319" rx="21" ry="11" fill="#171715" opacity="0.5"/>
<ellipse cx="160" cy="290" rx="13" ry="18" fill="#171715" opacity="0.6"/>
<ellipse cx="180" cy="242.5" rx="16" ry="16" fill="#171715" opacity="0.6"/>
<ellipse cx="202" cy="204.1" rx="16" ry="16" fill="#171715" opacity="0.7"/>
<ellipse cx="226" cy="178.5" rx="16" ry="16" fill="#171715" opacity="0.7"/>
<ellipse cx="250" cy="170" rx="16" ry="16" fill="#A8342A" opacity="1"/>
</svg>
