<svg xmlns="http://www.w3.org/2000/svg" viewBox="0 0 300 400" width="300" height="400">
<rect width="300" height="400" fill="#171715"/>
<path d="M-300 400 L-57 292" stroke="#E5DED1" stroke-width="1.5" opacity=".35"/>
<path d="M-250 400 L-34 292" stroke="#E5DED1" stroke-width="1.5" opacity=".35"/>
<path d="M-200 400 L-11 292" stroke="#E5DED1" stroke-width="1.5" opacity=".35"/>
<path d="M-150 400 L12 292" stroke="#E5DED1" stroke-width="1.5" opacity=".35"/>
<path d="M-100 400 L35 292" stroke="#E5DED1" stroke-width="1.5" opacity=".35"/>
<path d="M-50 400 L58 292" stroke="#E5DED1" stroke-width="1.5" opacity=".35"/>
<path d="M0 400 L81 292" stroke="#E5DED1" stroke-width="1.5" opacity=".35"/>
<path d="M50 400 L104 292" stroke="#E5DED1" stroke-width="1.5" opacity=".35"/>
<path d="M100 400 L127 292" stroke="#E5DED1" stroke-width="1.5" opacity=".35"/>
<path d="M150 400 L150 292" stroke="#E5DED1" stroke-width="1.5" opacity=".35"/>
<path d="M200 400 L173 292" stroke="#E5DED1" stroke-width="1.5" opacity=".35"/>
<path d="M250 400 L196 292" stroke="#E5DED1" stroke-width="1.5" opacity=".35"/>
<path d="M300 400 L219 292" stroke="#E5DED1" stroke-width="1.5" opacity=".35"/>
<path d="M350 400 L242 292" stroke="#E5DED1" stroke-width="1.5" opacity=".35"/>
<path d="M400 400 L265 292" stroke="#E5DED1" stroke-width="1.5" opacity=".35"/>
<path d="M450 400 L288 292" stroke="#E5DED1" stroke-width="1.5" opacity=".35"/>
<path d="M500 400 L311 292" stroke="#E5DED1" stroke-width="1.5" opacity=".35"/>
<path d="M550 400 L334 292" stroke="#E5DED1" stroke-width="1.5" opacity=".35"/>
<path d="M600 400 L357 292" stroke="#E5DED1" stroke-width="1.5" opacity=".35"/>
<path d="M0 292 H300" stroke="#E5DED1" stroke-width="1.5" opacity=".35"/>
<path d="M0 297 H300" stroke="#E5DED1" stroke-width="1.5" opacity=".35"/>
<path d="M0 304 H300" stroke="#E5DED1" stroke-width="1.5" opacity=".35"/>
<path d="M0 314 H300" stroke="#E5DED1" stroke-width="1.5" opacity=".35"/>
<path d="M0 328 H300" stroke="#E5DED1" stroke-width="1.5" opacity=".35"/>
<path d="M0 348 H300" stroke="#E5DED1" stroke-width="1.5" opacity=".35"/>
<path d="M0 374 H300" stroke="#E5DED1" stroke-width="1.5" opacity=".35"/>
<circle cx="28" cy="40" r="1.6" fill="#FAF7F0"/>
<circle cx="62" cy="88" r="1.2" fill="#FAF7F0"/>
<circle cx="270" cy="36" r="2" fill="#FAF7F0"/>
<circle cx="282" cy="120" r="1.3" fill="#FAF7F0"/>
<circle cx="40" cy="210" r="1.4" fill="#FAF7F0"/>
<circle cx="276" cy="238" r="1.6" fill="#FAF7F0"/>
<circle cx="110" cy="24" r="1.1" fill="#FAF7F0"/>
<clipPath id="solid"><rect x="160" y="0" width="140" height="400"/></clipPath>
<clipPath id="wire"><rect x="0" y="0" width="160" height="400"/></clipPath>
<circle cx="160" cy="160" r="96" fill="#A8342A" clip-path="url(#solid)"/>
<g clip-path="url(#wire)"><circle cx="160" cy="160" r="96" fill="none" stroke="#E5DED1" stroke-width="1.5"/><ellipse cx="160" cy="160" rx="96" ry="96" fill="none" stroke="#E5DED1" stroke-width="1.5"/><ellipse cx="160" cy="160" rx="83.1" ry="96" fill="none" stroke="#E5DED1" stroke-width="1.5"/><ellipse cx="160" cy="160" rx="48" ry="96" fill="none" stroke="#E5DED1" stroke-width="1.5"/><path d="M88.4 96 H231.6" stroke="#E5DED1" stroke-width="1.5"/><path d="M69.5 128 H250.5" stroke="#E5DED1" stroke-width="1.5"/><path d="M64 160 H256" stroke="#E5DED1" stroke-width="1.5"/><path d="M69.5 192 H250.5" stroke="#E5DED1" stroke-width="1.5"/><path d="M88.4 224 H231.6" stroke="#E5DED1" stroke-width="1.5"/></g>
<circle cx="214" cy="196" r="9" fill="#171715" opacity=".22"/><circle cx="190" cy="228" r="6" fill="#171715" opacity=".22"/>
<g transform="translate(236 98) rotate(145)"><path d="M0 -10 H26 Q42 0 26 10 H0 Z" fill="#E5DED1"/><rect x="6" y="-10" width="4" height="20" fill="#171715"/></g>
</svg>
