<svg xmlns="http://www.w3.org/2000/svg" viewBox="0 0 760 600" width="760" height="600">
<g class="hero-beam"><polygon points="292,278 292,302 760,560 760,40" fill="#FAF7F0" opacity=".07"/><polygon points="292,284 292,296 760,430 760,170" fill="#FAF7F0" opacity=".08"/></g>
<g class="hero-motes"><circle cx="340" cy="286" r="1.6" fill="#FAF7F0" opacity=".45"/><circle cx="372" cy="262" r="1.1" fill="#FAF7F0" opacity=".45"/><circle cx="410" cy="318" r="2" fill="#FAF7F0" opacity=".45"/><circle cx="446" cy="240" r="1.3" fill="#FAF7F0" opacity=".45"/><circle cx="468" cy="350" r="1.5" fill="#FAF7F0" opacity=".45"/><circle cx="396" cy="300" r="1" fill="#FAF7F0" opacity=".45"/><circle cx="520" cy="196" r="1.8" fill="#FAF7F0" opacity=".45"/><circle cx="540" cy="404" r="1.2" fill="#FAF7F0" opacity=".45"/><circle cx="590" cy="150" r="1.4" fill="#FAF7F0" opacity=".45"/><circle cx="612" cy="452" r="1.7" fill="#FAF7F0" opacity=".45"/><circle cx="660" cy="214" r="1.1" fill="#FAF7F0" opacity=".45"/><circle cx="690" cy="390" r="1.5" fill="#FAF7F0" opacity=".45"/><circle cx="482" cy="286" r="1" fill="#FAF7F0" opacity=".45"/></g>
<path d="M96 150 L126 250 M204 116 L176 250" stroke="#625D55" stroke-width="7"/>
<g class="hero-reel"><circle cx="96" cy="150" r="64" fill="#625D55"/><circle cx="96" cy="114.8" r="12.8" fill="#171715"/><circle cx="129.5" cy="139.1" r="12.8" fill="#171715"/><circle cx="116.7" cy="178.5" r="12.8" fill="#171715"/><circle cx="75.3" cy="178.5" r="12.8" fill="#171715"/><circle cx="62.5" cy="139.1" r="12.8" fill="#171715"/><circle cx="96" cy="150" r="6" fill="#171715"/></g>
<g class="hero-reel hero-reel--rear"><circle cx="204" cy="116" r="52" fill="#625D55"/><circle cx="204" cy="87.4" r="10.4" fill="#171715"/><circle cx="231.2" cy="107.2" r="10.4" fill="#171715"/><circle cx="220.8" cy="139.1" r="10.4" fill="#171715"/><circle cx="187.2" cy="139.1" r="10.4" fill="#171715"/><circle cx="176.8" cy="107.2" r="10.4" fill="#171715"/><circle cx="204" cy="116" r="6" fill="#171715"/></g>
<rect x="66" y="246" width="176" height="94" fill="#625D55"/>
<rect x="84" y="264" width="44" height="8" fill="#171715"/><rect x="84" y="280" width="44" height="8" fill="#171715"/>
<circle cx="206" cy="304" r="12" fill="#171715"/>
<rect x="242" y="272" width="42" height="36" fill="#625D55"/><rect x="284" y="264" width="10" height="52" fill="#E5DED1"/>
<rect x="54" y="340" width="200" height="10" fill="#625D55"/>
<rect x="455" y="238" width="290" height="122" fill="none" stroke="#A8342A" stroke-width="3"/>
<rect x="472" y="227" width="256" height="144" fill="none" stroke="#78A9B5" stroke-width="2"/>
<rect x="510" y="234" width="180" height="131" fill="none" stroke="#E5DED1" stroke-width="2"/>
<g class="hero-screen"><rect x="560" y="228" width="80" height="142" fill="#A8342A"/><rect x="568" y="236" width="64" height="126" fill="none" stroke="#FAF7F0" stroke-width="1.5" opacity=".6" vector-effect="non-scaling-stroke"/></g>
</svg>
